<mxfile host="app.diagrams.net" modified="2023-11-03T08:54:23.939Z" agent="Mozilla/5.0 (Macintosh; Intel Mac OS X 10_15_7) AppleWebKit/537.36 (KHTML, like Gecko) Chrome/118.0.0.0 Safari/537.36" etag="x8yQmRG_L2oirh2WkF82" version="22.0.8" type="github" pages="2">
  <diagram name="第 1 页" id="NfA-dd6uZ9-hCYNo-2ie">
    <mxGraphModel dx="954" dy="616" grid="1" gridSize="10" guides="1" tooltips="1" connect="1" arrows="1" fold="1" page="1" pageScale="1" pageWidth="827" pageHeight="1169" math="0" shadow="0">
      <root>
        <mxCell id="0" />
        <mxCell id="1" parent="0" />
      </root>
    </mxGraphModel>
  </diagram>
  <diagram id="NODkaDMKs-VVo_3qcj2y" name="第 2 页">
    <mxGraphModel dx="954" dy="616" grid="1" gridSize="10" guides="1" tooltips="1" connect="1" arrows="1" fold="1" page="1" pageScale="1" pageWidth="827" pageHeight="1169" math="0" shadow="0">
      <root>
        <mxCell id="0" />
        <mxCell id="1" parent="0" />
        <mxCell id="rQdxjHp206yHWt1EIQCo-3" value="" style="edgeStyle=orthogonalEdgeStyle;rounded=0;orthogonalLoop=1;jettySize=auto;html=1;" edge="1" parent="1" source="rQdxjHp206yHWt1EIQCo-1" target="rQdxjHp206yHWt1EIQCo-2">
          <mxGeometry relative="1" as="geometry" />
        </mxCell>
        <mxCell id="rQdxjHp206yHWt1EIQCo-1" value="header-取token" style="rounded=0;whiteSpace=wrap;html=1;" vertex="1" parent="1">
          <mxGeometry x="220" y="180" width="120" height="60" as="geometry" />
        </mxCell>
        <mxCell id="rQdxjHp206yHWt1EIQCo-5" value="" style="edgeStyle=orthogonalEdgeStyle;rounded=0;orthogonalLoop=1;jettySize=auto;html=1;" edge="1" parent="1" source="rQdxjHp206yHWt1EIQCo-2" target="rQdxjHp206yHWt1EIQCo-4">
          <mxGeometry relative="1" as="geometry" />
        </mxCell>
        <mxCell id="rQdxjHp206yHWt1EIQCo-2" value="是null" style="rhombus;whiteSpace=wrap;html=1;rounded=0;" vertex="1" parent="1">
          <mxGeometry x="440" y="170" width="80" height="80" as="geometry" />
        </mxCell>
        <mxCell id="rQdxjHp206yHWt1EIQCo-4" value="从Cookie中去取token" style="whiteSpace=wrap;html=1;rounded=0;" vertex="1" parent="1">
          <mxGeometry x="420" y="340" width="120" height="60" as="geometry" />
        </mxCell>
      </root>
    </mxGraphModel>
  </diagram>
</mxfile>
